<mxfile host="app.diagrams.net" agent="Mozilla/5.0 (Windows NT 10.0; Win64; x64; rv:133.0) Gecko/20100101 Firefox/133.0" version="25.0.1">
  <diagram name="Page-1" id="TRlwraolJsmyMYcNsV0k">
    <mxGraphModel dx="532" dy="277" grid="1" gridSize="10" guides="1" tooltips="1" connect="1" arrows="1" fold="1" page="1" pageScale="1" pageWidth="850" pageHeight="1100" math="0" shadow="0">
      <root>
        <mxCell id="0" />
        <mxCell id="1" parent="0" />
        <mxCell id="rkVceW5tMbaeUVdKwzyJ-3" value="&lt;div&gt;0&lt;/div&gt;&lt;div&gt;^&amp;nbsp; v&lt;br&gt;&lt;/div&gt;&lt;div&gt;^&lt;span style=&quot;white-space: pre;&quot;&gt;&#x9;&lt;/span&gt;v&lt;/div&gt;&lt;div&gt;^&lt;span style=&quot;white-space: pre;&quot;&gt;&#x9;    &lt;/span&gt;v&lt;/div&gt;&lt;div&gt;^&lt;span style=&quot;white-space: pre;&quot;&gt;&#x9;&lt;/span&gt;&lt;span style=&quot;white-space: pre;&quot;&gt;&#x9;&lt;/span&gt;v&lt;br&gt;&lt;/div&gt;&lt;div&gt;1 &amp;lt;&amp;lt;&amp;lt;&amp;lt;&amp;lt;&amp;lt;&amp;lt;&amp;lt; 2&lt;br&gt;&lt;/div&gt;" style="strokeWidth=2;html=1;shape=mxgraph.flowchart.extract_or_measurement;whiteSpace=wrap;fontSize=5;" vertex="1" parent="1">
          <mxGeometry x="20" y="140" width="40" height="40" as="geometry" />
        </mxCell>
        <mxCell id="rkVceW5tMbaeUVdKwzyJ-4" value="&lt;div&gt;0&lt;/div&gt;&lt;div&gt;v&amp;nbsp; ^&lt;br&gt;&lt;/div&gt;&lt;div&gt;v&lt;span style=&quot;white-space: pre;&quot;&gt;&#x9;&lt;/span&gt;^&lt;/div&gt;&lt;div&gt;v&lt;span style=&quot;white-space: pre;&quot;&gt;&#x9;    &lt;/span&gt;^&lt;/div&gt;&lt;div&gt;v&lt;span style=&quot;white-space: pre;&quot;&gt;&#x9;&lt;/span&gt;&lt;span style=&quot;white-space: pre;&quot;&gt;&#x9;&lt;/span&gt;^&lt;br&gt;&lt;/div&gt;&lt;div&gt;1 &amp;gt;&amp;gt;&amp;gt;&amp;gt;&amp;gt;&amp;gt;&amp;gt;&amp;gt; 2&lt;br&gt;&lt;/div&gt;" style="strokeWidth=2;html=1;shape=mxgraph.flowchart.extract_or_measurement;whiteSpace=wrap;fontSize=5;" vertex="1" parent="1">
          <mxGeometry x="20" y="200" width="40" height="40" as="geometry" />
        </mxCell>
        <mxCell id="rkVceW5tMbaeUVdKwzyJ-7" value="&lt;div&gt;0&lt;/div&gt;&lt;div&gt;&lt;br&gt;&lt;/div&gt;&lt;div&gt;?&lt;br&gt;&lt;/div&gt;&lt;div&gt;&lt;br&gt;&lt;/div&gt;&lt;div&gt;1&lt;br&gt;&lt;/div&gt;" style="rhombus;whiteSpace=wrap;html=1;fontSize=5;" vertex="1" parent="1">
          <mxGeometry x="20" y="260" width="40" height="40" as="geometry" />
        </mxCell>
        <mxCell id="rkVceW5tMbaeUVdKwzyJ-9" value="endpoint" style="whiteSpace=wrap;html=1;aspect=fixed;fontSize=5;" vertex="1" parent="1">
          <mxGeometry x="20" y="80" width="40" height="40" as="geometry" />
        </mxCell>
        <mxCell id="rkVceW5tMbaeUVdKwzyJ-10" value="mainframe" style="shape=process;whiteSpace=wrap;html=1;backgroundOutline=1;fontSize=5;" vertex="1" parent="1">
          <mxGeometry x="20" y="20" width="40" height="40" as="geometry" />
        </mxCell>
      </root>
    </mxGraphModel>
  </diagram>
</mxfile>
